<svg width="18" height="17" viewBox="0 0 18 17" fill="none" xmlns="http://www.w3.org/2000/svg">
<path d="M9 0.53125C5.11875 0.53125 1.96875 3.50625 1.96875 7.17188C1.96875 10.8375 5.11875 13.8125 9 13.8125C12.8813 13.8125 16.0312 10.8375 16.0312 7.17188C16.0312 3.50625 12.8813 0.53125 9 0.53125ZM9 12.4844C5.90625 12.4844 3.375 10.0938 3.375 7.17188C3.375 4.25 5.90625 1.85938 9 1.85938C12.0938 1.85938 14.625 4.25 14.625 7.17188C14.625 10.0938 12.0938 12.4844 9 12.4844Z" fill="white"/>
<path d="M7.14374 5.12656C7.39686 4.86094 7.70624 4.64844 8.07186 4.51562C8.43749 4.35625 8.80311 4.27656 9.19686 4.27656C9.67499 4.27656 10.1531 4.38281 10.5469 4.62187C10.9406 4.83437 11.3062 5.15313 11.5594 5.49844L12.5719 4.78125C12.1781 4.30313 11.7 3.87813 11.1375 3.6125C10.5469 3.32031 9.92811 3.1875 9.22499 3.1875C8.66249 3.1875 8.09999 3.29375 7.59374 3.50625C7.08749 3.71875 6.63749 4.01094 6.27186 4.35625C5.90624 4.72812 5.59686 5.12656 5.37186 5.63125C5.14686 6.10938 5.03436 6.64062 5.03436 7.17188C5.03436 7.72969 5.14686 8.23438 5.37186 8.7125C5.59686 9.19062 5.87811 9.61562 6.27186 9.9875C6.63749 10.3594 7.08749 10.625 7.59374 10.8375C8.09999 11.05 8.63436 11.1562 9.22499 11.1562C9.92811 11.1562 10.575 11.0234 11.1375 10.7313C11.7 10.4391 12.2062 10.0406 12.5719 9.5625L11.5594 8.84531C11.3062 9.21719 10.9687 9.50937 10.5469 9.72187C10.125 9.93437 9.67499 10.0406 9.19686 10.0406C8.80311 10.0406 8.43749 9.96094 8.07186 9.80156C7.73436 9.64219 7.42499 9.42969 7.14374 9.19062C6.89061 8.925 6.66561 8.63281 6.52499 8.2875C6.38436 7.94219 6.29999 7.57031 6.29999 7.17188C6.29999 6.77344 6.38436 6.40156 6.52499 6.05625C6.66561 5.71094 6.89061 5.39219 7.14374 5.12656Z" fill="white"/>
</svg>
