<svg width="305" height="26" viewBox="0 0 305 26" fill="none" xmlns="http://www.w3.org/2000/svg">
<path d="M0.5 10C0.5 4.75329 4.75329 0.5 10 0.5L278.5 0.5V25.5L10 25.5C4.7533 25.5 0.5 21.2467 0.5 16L0.5 10Z" fill="#EFEFEF" stroke="#FF8A00"/>
<path d="M277.5 0.5L295 0.5C300.247 0.5 304.5 4.7533 304.5 10V16C304.5 21.2467 300.247 25.5 295 25.5H277.5V0.5Z" fill="#FF8A00" stroke="#FF8A00"/>
<path d="M294.743 15.3421C295.711 14.0208 296.145 12.3826 295.957 10.7553C295.77 9.12796 294.974 7.63149 293.731 6.56528C292.487 5.49907 290.887 4.94175 289.25 5.00482C287.613 5.0679 286.06 5.74671 284.902 6.90545C283.744 8.0642 283.067 9.61742 283.005 11.2544C282.943 12.8913 283.501 14.4913 284.568 15.7342C285.635 16.9771 287.132 17.7712 288.76 17.9577C290.387 18.1442 292.025 17.7094 293.346 16.7401H293.345C293.375 16.7801 293.407 16.8181 293.443 16.8551L297.293 20.7051C297.48 20.8928 297.735 20.9983 298 20.9983C298.265 20.9984 298.52 20.8932 298.707 20.7056C298.895 20.5181 299.001 20.2638 299.001 19.9985C299.001 19.7332 298.895 19.4788 298.708 19.2911L294.858 15.4411C294.822 15.405 294.784 15.3725 294.743 15.3421ZM295.001 11.4981C295.001 12.2204 294.859 12.9356 294.582 13.6029C294.306 14.2702 293.901 14.8765 293.39 15.3872C292.879 15.898 292.273 16.3031 291.606 16.5795C290.938 16.8559 290.223 16.9981 289.501 16.9981C288.779 16.9981 288.063 16.8559 287.396 16.5795C286.729 16.3031 286.123 15.898 285.612 15.3872C285.101 14.8765 284.696 14.2702 284.42 13.6029C284.143 12.9356 284.001 12.2204 284.001 11.4981C284.001 10.0395 284.58 8.64051 285.612 7.60906C286.643 6.57761 288.042 5.99815 289.501 5.99815C290.96 5.99815 292.359 6.57761 293.39 7.60906C294.421 8.64051 295.001 10.0395 295.001 11.4981Z" fill="white"/>
</svg>
