<svg width="23" height="23" viewBox="0 0 23 23" fill="none" xmlns="http://www.w3.org/2000/svg">
<g clip-path="url(#clip0_59_45)">
<path d="M20.6553 3.83339C20.5682 3.82442 20.4804 3.82442 20.3933 3.83339H2.50444C2.38979 3.83516 2.2759 3.85235 2.16583 3.8845L11.3978 13.0781L20.6553 3.83339Z" fill="white"/>
<path d="M21.6008 4.72144L12.2986 13.9853C12.0592 14.2233 11.7353 14.3569 11.3978 14.3569C11.0602 14.3569 10.7363 14.2233 10.4969 13.9853L1.27775 4.79171C1.24941 4.89588 1.23439 5.00321 1.23303 5.11116V17.8889C1.23303 18.2278 1.36765 18.5528 1.60728 18.7925C1.84691 19.0321 2.17192 19.1667 2.51081 19.1667H20.3997C20.7386 19.1667 21.0636 19.0321 21.3032 18.7925C21.5429 18.5528 21.6775 18.2278 21.6775 17.8889V5.11116C21.6724 4.97805 21.6465 4.84655 21.6008 4.72144ZM3.38609 17.8889H2.49803V16.9753L7.14275 12.3689L8.04359 13.2698L3.38609 17.8889ZM20.3869 17.8889H19.4925L14.835 13.2698L15.7358 12.3689L20.3805 16.9753L20.3869 17.8889Z" fill="white"/>
</g>
<defs>
<clipPath id="clip0_59_45">
<rect width="23" height="23" fill="white"/>
</clipPath>
</defs>
</svg>
